<svg width="143" height="137" viewBox="0 0 143 137" fill="none" xmlns="http://www.w3.org/2000/svg">
<path fill-rule="evenodd" clip-rule="evenodd" d="M136.742 84.0114C136.544 83.4145 135.899 83.0914 135.302 83.2896C132.635 84.1756 130.006 85.1008 127.4 86.018C114.285 90.6345 101.74 95.0505 87.5942 93.2587C76.3125 91.8296 63.3008 86.2593 57.8322 76.0201C62.1749 73.9653 65.6131 70.4995 68.2422 65.8503C69.4837 63.6548 70.9679 60.5709 71.6113 57.4118C72.2523 54.2639 72.0983 50.8098 69.7308 48.1682C67.6873 45.8881 64.8029 46.3286 62.5738 47.3347C60.3056 48.3584 58.2093 50.1547 57.1064 51.5143C51.9597 57.8594 51.794 67.4748 54.7561 74.8043C53.0044 75.3891 51.1079 75.7451 49.0575 75.8624C39.8885 76.3871 31.5934 73.4345 23.8801 68.8844C16.4894 64.5247 9.70622 58.7452 3.236 53.2324C2.93797 52.9785 2.6406 52.7251 2.34387 52.4725C1.86503 52.0648 1.14636 52.1225 0.738675 52.6013C0.330995 53.0802 0.388683 53.7988 0.867525 54.2065C1.17885 54.4716 1.49133 54.7379 1.80496 55.0051C8.23722 60.4862 15.1572 66.3829 22.723 70.846C30.6755 75.537 39.4213 78.695 49.1876 78.1361C51.5399 78.0015 53.7126 77.5782 55.7135 76.8847C55.7492 76.9531 55.7851 77.0213 55.8214 77.0892C61.799 88.2861 75.7185 94.0499 87.308 95.518C102.036 97.3836 115.172 92.7509 128.292 88.1234C130.865 87.216 133.437 86.3089 136.02 85.4509C136.617 85.2527 136.94 84.6082 136.742 84.0114ZM56.8681 73.9562C54.1325 67.2096 54.3786 58.4924 58.8751 52.949C59.7787 51.835 61.5992 50.2732 63.5107 49.4104C65.4614 48.53 67.0198 48.5555 68.0349 49.6881C69.7081 51.5551 69.9558 54.1283 69.3797 56.9574C68.8058 59.7753 67.4538 62.6179 66.2598 64.7293C63.8484 68.9934 60.7586 72.113 56.8681 73.9562Z" fill="white"/>
<path fill-rule="evenodd" clip-rule="evenodd" d="M137.709 84.4557C137.496 84.6612 137.287 84.8626 137.19 84.9732C136.372 85.9 135.569 86.8501 134.776 87.7889C134.446 88.1801 134.117 88.5694 133.789 88.9542C133.382 89.4331 133.439 90.1518 133.918 90.5594C134.397 90.9671 135.116 90.9094 135.523 90.4306C135.863 90.0313 136.199 89.6338 136.533 89.2382C137.319 88.3076 138.097 87.3876 138.898 86.48C138.897 86.4806 138.897 86.4804 138.898 86.4795C138.901 86.4762 138.914 86.4628 138.941 86.4354C138.973 86.4035 139.014 86.363 139.065 86.3128C139.124 86.256 139.187 86.1952 139.257 86.127C139.316 86.0699 139.381 86.0077 139.452 85.9385C139.753 85.6469 140.13 85.2763 140.484 84.898C140.827 84.5314 141.194 84.1092 141.444 83.7187C141.562 83.5335 141.711 83.2703 141.781 82.9712C141.851 82.6698 141.891 82.0462 141.355 81.5906C140.721 81.0506 139.98 80.7395 139.296 80.5346C138.705 80.3572 138.089 80.2416 137.573 80.1447C137.499 80.1309 137.428 80.1175 137.359 80.1044C136.713 79.9813 136.089 79.7884 135.427 79.563C135.257 79.5051 135.081 79.4438 134.901 79.3811C134.403 79.2078 133.873 79.023 133.339 78.8655C132.736 78.6875 132.103 79.0321 131.925 79.6352C131.747 80.2384 132.091 80.8717 132.694 81.0497C133.172 81.1906 133.624 81.348 134.103 81.515C134.294 81.5816 134.49 81.6497 134.693 81.7189C135.384 81.9542 136.128 82.1882 136.933 82.3415C137.009 82.356 137.085 82.3703 137.159 82.3844C137.686 82.4837 138.175 82.5758 138.642 82.716C138.846 82.7771 139.032 82.8436 139.201 82.9171C139.092 83.0467 138.964 83.1896 138.821 83.3423C138.507 83.6782 138.162 84.0171 137.867 84.3034C137.815 84.3535 137.762 84.4047 137.709 84.4557Z" fill="white"/>
</svg>
