<svg width="8" height="8" viewBox="0 0 8 8" fill="none" xmlns="http://www.w3.org/2000/svg">
<g clip-path="url(#clip0_1_1468)">
<path d="M4.00002 2C3.73631 2 3.47853 2.0782 3.25926 2.22471C3.04 2.37122 2.8691 2.57945 2.76818 2.82309C2.66726 3.06672 2.64086 3.33481 2.69231 3.59345C2.74375 3.8521 2.87074 4.08967 3.05721 4.27614C3.24368 4.46261 3.48126 4.5896 3.7399 4.64105C3.99854 4.69249 4.26663 4.66609 4.51027 4.56517C4.7539 4.46426 4.96214 4.29336 5.10865 4.07409C5.25516 3.85483 5.33335 3.59704 5.33335 3.33333C5.33335 2.97971 5.19288 2.64057 4.94283 2.39052C4.69278 2.14048 4.35364 2 4.00002 2ZM4.00002 4C3.86817 4 3.73927 3.9609 3.62964 3.88765C3.52001 3.81439 3.43456 3.71027 3.3841 3.58846C3.33364 3.46664 3.32044 3.33259 3.34616 3.20327C3.37189 3.07395 3.43538 2.95516 3.52862 2.86193C3.62185 2.76869 3.74064 2.7052 3.86996 2.67948C3.99928 2.65375 4.13333 2.66696 4.25514 2.71741C4.37696 2.76787 4.48108 2.85332 4.55433 2.96295C4.62759 3.07259 4.66669 3.20148 4.66669 3.33333C4.66669 3.51014 4.59645 3.67971 4.47143 3.80474C4.3464 3.92976 4.17683 4 4.00002 4Z" fill="#0C0C0C"/>
<path d="M3.99998 7.99994C3.7193 8.00137 3.44235 7.93554 3.19234 7.80795C2.94232 7.68036 2.72651 7.49473 2.56298 7.2666C1.29265 5.51427 0.648315 4.19693 0.648315 3.35093C0.648315 2.46202 1.00144 1.60951 1.63 0.980948C2.25856 0.352389 3.11106 -0.000732422 3.99998 -0.000732422C4.8889 -0.000732422 5.74141 0.352389 6.36997 0.980948C6.99853 1.60951 7.35165 2.46202 7.35165 3.35093C7.35165 4.19693 6.70732 5.51427 5.43698 7.2666C5.27345 7.49473 5.05764 7.68036 4.80763 7.80795C4.55761 7.93554 4.28067 8.00137 3.99998 7.99994ZM3.99998 0.726934C3.30412 0.727728 2.63699 1.00451 2.14494 1.49656C1.65289 1.98861 1.37611 2.65574 1.37532 3.3516C1.37532 4.0216 2.00632 5.2606 3.15165 6.84027C3.24888 6.97419 3.37644 7.0832 3.52389 7.15836C3.67133 7.23352 3.83448 7.2727 3.99998 7.2727C4.16548 7.2727 4.32863 7.23352 4.47608 7.15836C4.62353 7.0832 4.75108 6.97419 4.84832 6.84027C5.99365 5.2606 6.62465 4.0216 6.62465 3.3516C6.62385 2.65574 6.34707 1.98861 5.85502 1.49656C5.36298 1.00451 4.69584 0.727728 3.99998 0.726934Z" fill="#0C0C0C"/>
</g>
<defs>
<clipPath id="clip0_1_1468">
<rect width="8" height="8" fill="white"/>
</clipPath>
</defs>
</svg>
