<svg width="17" height="17" viewBox="0 0 17 17" fill="none" xmlns="http://www.w3.org/2000/svg">
<g id="phone-call 1" clip-path="url(#clip0_1_3198)">
<path id="Vector" d="M15.8333 7.83353C15.6565 7.83353 15.487 7.76329 15.3619 7.63827C15.2369 7.51324 15.1667 7.34367 15.1667 7.16686C15.1653 5.75281 14.6029 4.39707 13.603 3.39719C12.6031 2.3973 11.2474 1.83494 9.83333 1.83353C9.65652 1.83353 9.48695 1.76329 9.36193 1.63827C9.2369 1.51324 9.16667 1.34367 9.16667 1.16686C9.16667 0.990052 9.2369 0.820483 9.36193 0.695459C9.48695 0.570434 9.65652 0.500197 9.83333 0.500197C11.6008 0.502138 13.2954 1.20514 14.5452 2.45496C15.7951 3.70478 16.4981 5.39935 16.5 7.16686C16.5 7.34367 16.4298 7.51324 16.3047 7.63827C16.1797 7.76329 16.0101 7.83353 15.8333 7.83353ZM13.8333 7.16686C13.8333 6.106 13.4119 5.08858 12.6618 4.33844C11.9116 3.58829 10.8942 3.16686 9.83333 3.16686C9.65652 3.16686 9.48695 3.2371 9.36193 3.36213C9.2369 3.48715 9.16667 3.65672 9.16667 3.83353C9.16667 4.01034 9.2369 4.17991 9.36193 4.30493C9.48695 4.42996 9.65652 4.5002 9.83333 4.5002C10.5406 4.5002 11.2189 4.78115 11.719 5.28125C12.219 5.78134 12.5 6.45962 12.5 7.16686C12.5 7.34367 12.5702 7.51324 12.6953 7.63827C12.8203 7.76329 12.9899 7.83353 13.1667 7.83353C13.3435 7.83353 13.513 7.76329 13.6381 7.63827C13.7631 7.51324 13.8333 7.34367 13.8333 7.16686ZM15.2887 15.2762L15.8953 14.5769C16.2815 14.1895 16.4983 13.6648 16.4983 13.1179C16.4983 12.5709 16.2815 12.0462 15.8953 11.6589C15.8747 11.6382 14.2707 10.4042 14.2707 10.4042C13.8857 10.0378 13.3744 9.8337 12.8429 9.83445C12.3114 9.83519 11.8006 10.0407 11.4167 10.4082L10.146 11.4789C9.10878 11.0496 8.16659 10.4196 7.37352 9.62521C6.58046 8.83077 5.95214 7.88749 5.52467 6.84953L6.59133 5.58286C6.95914 5.19898 7.16486 4.68811 7.16573 4.15647C7.1666 3.62482 6.96255 3.11328 6.596 2.7282C6.596 2.7282 5.36067 1.1262 5.34 1.10553C4.95963 0.722695 4.44392 0.504878 3.90428 0.49914C3.36465 0.493402 2.84442 0.700203 2.456 1.07486L1.68933 1.74153C-2.84 6.9962 6.91333 16.6742 12.3413 16.5002C12.8895 16.5034 13.4327 16.3967 13.9389 16.1865C14.4451 15.9762 14.904 15.6667 15.2887 15.2762Z" fill="white"/>
</g>
<defs>
<clipPath id="clip0_1_3198">
<rect width="16" height="16" fill="white" transform="translate(0.5 0.5)"/>
</clipPath>
</defs>
</svg>
