<svg width="8" height="8" viewBox="0 0 8 8" fill="none" xmlns="http://www.w3.org/2000/svg">
<path d="M7.707 3.02296L5.17867 0.494289C4.86575 0.182285 4.44189 0.00708008 4 0.00708008C3.55812 0.00708008 3.13426 0.182285 2.82134 0.494289L0.293004 3.02296C0.199812 3.11555 0.125927 3.22572 0.0756315 3.34708C0.0253357 3.46845 -0.000370133 3.59858 4.02649e-06 3.72996V7.00229C4.02649e-06 7.26751 0.105361 7.52186 0.292897 7.7094C0.480434 7.89693 0.734788 8.00229 1 8.00229H7C7.26522 8.00229 7.51957 7.89693 7.70711 7.7094C7.89465 7.52186 8 7.26751 8 7.00229V3.72996C8.00038 3.59858 7.97467 3.46845 7.92438 3.34708C7.87408 3.22572 7.8002 3.11555 7.707 3.02296ZM5 7.33562H3V6.02429C3 5.75907 3.10536 5.50472 3.2929 5.31718C3.48043 5.12965 3.73479 5.02429 4 5.02429C4.26522 5.02429 4.51957 5.12965 4.70711 5.31718C4.89465 5.50472 5 5.75907 5 6.02429V7.33562ZM7.33334 7.00229C7.33334 7.09069 7.29822 7.17548 7.23571 7.23799C7.17319 7.3005 7.08841 7.33562 7 7.33562H5.66667V6.02429C5.66667 5.58226 5.49108 5.15834 5.17852 4.84578C4.86595 4.53322 4.44203 4.35762 4 4.35762C3.55798 4.35762 3.13405 4.53322 2.82149 4.84578C2.50893 5.15834 2.33334 5.58226 2.33334 6.02429V7.33562H1C0.911599 7.33562 0.826814 7.3005 0.764302 7.23799C0.70179 7.17548 0.666671 7.09069 0.666671 7.00229V3.72996C0.66698 3.64162 0.702067 3.55695 0.764337 3.49429L3.29267 0.966622C3.48057 0.779598 3.73489 0.674603 4 0.674603C4.26512 0.674603 4.51944 0.779598 4.70734 0.966622L7.23567 3.49529C7.2977 3.5577 7.33277 3.64196 7.33334 3.72996V7.00229Z" fill="#0C0C0C"/>
</svg>
